<?xml version="1.0" encoding="UTF-8"?>
<svg xmlns="http://www.w3.org/2000/svg" xmlns:xlink="http://www.w3.org/1999/xlink" width="21px" height="21px" viewBox="0 0 21 21" version="1.1">
<g id="surface1">
<path style="fill:none;stroke-width:18;stroke-linecap:round;stroke-linejoin:round;stroke:rgb(0%,0%,0%);stroke-opacity:1;stroke-miterlimit:4;" d="M 174.095238 793.904762 C 193.904762 793.904762 224 752 259.047619 745.904762 C 279.047619 745.904762 294.095238 788 344 793.904762 C 379.047619 793.904762 393.904762 752 428.952381 752 C 464 752 479.047619 793.904762 513.904762 793.904762 C 548.952381 793.904762 564 752 599.047619 752 C 633.904762 752 648.952381 793.904762 684 793.904762 C 719.047619 793.904762 734.095238 752 768.952381 752 C 804 752 819.047619 793.904762 854.095238 793.904762 " transform="matrix(0.0205078,0,0,0.0205078,0,0)"/>
<path style="fill:none;stroke-width:18;stroke-linecap:round;stroke-linejoin:round;stroke:rgb(0%,0%,0%);stroke-opacity:1;stroke-miterlimit:4;" d="M 242.47619 752.190476 L 219.428571 708.380952 L 809.52381 670.47619 C 763.047619 712.571429 703.428571 746.857143 643.238095 774.857143 " transform="matrix(0.0205078,0,0,0.0205078,0,0)"/>
<path style="fill:none;stroke-width:18;stroke-linecap:round;stroke-linejoin:round;stroke:rgb(0%,0%,0%);stroke-opacity:1;stroke-miterlimit:4;" d="M 454.47619 300.380952 C 554.857143 331.047619 695.238095 479.428571 743.047619 638.857143 C 716.761905 628.571429 697.142857 617.904762 660.380952 627.428571 C 624.761905 497.904762 561.142857 374.285714 454.47619 300.380952 Z M 454.47619 300.380952 " transform="matrix(0.0205078,0,0,0.0205078,0,0)"/>
<path style="fill:none;stroke-width:18;stroke-linecap:round;stroke-linejoin:round;stroke:rgb(0%,0%,0%);stroke-opacity:1;stroke-miterlimit:4;" d="M 267.619048 229.52381 C 396.380952 284.571429 572.761905 437.52381 605.142857 641.52381 C 456.761905 581.714286 343.809524 613.52381 265.333333 662.095238 C 385.142857 509.714286 331.428571 336.380952 267.619048 229.52381 Z M 267.619048 229.52381 " transform="matrix(0.0205078,0,0,0.0205078,0,0)"/>
</g>
</svg>
